<?xml version="1.0" encoding="iso-8859-1"?>
<!-- Generator: Adobe Illustrator 19.0.0, SVG Export Plug-In . SVG Version: 6.00 Build 0)  -->
<svg version="1.1" id="Layer_1" xmlns="http://www.w3.org/2000/svg" xmlns:xlink="http://www.w3.org/1999/xlink" x="0px" y="0px"
	 viewBox="0 0 512 512" style="enable-background:new 0 0 512 512;" xml:space="preserve">
<g>
	<path style="fill:#3D6DEB;" d="M235.18,163.275c0-64.838-52.751-117.589-117.59-117.589c-0.255,0-0.51,0.003-0.763,0.013H23.455
		C10.502,45.699,0,56.201,0,69.154v372.149c0,12.953,10.502,23.455,23.455,23.455s23.455-10.502,23.455-23.455V280.878h70.68
		c0.235,0,0.468-0.003,0.702-0.009c38.653,0.375,69.978,31.937,69.978,70.677v89.757c0,12.954,10.502,23.455,23.455,23.455
		c12.954,0,23.455-10.502,23.455-23.455v-89.757c0-38.462-18.562-72.667-47.198-94.135
		C216.618,235.943,235.18,201.737,235.18,163.275z M117.59,233.955H46.91V92.608h70.68c0.222,0,0.441-0.003,0.661-0.009
		c38.668,0.358,70.018,31.926,70.018,70.675C188.27,202.247,156.563,233.955,117.59,233.955z"/>
	<path style="fill:#3D6DEB;" d="M396.732,143.975c-25.593,0-49.256,8.394-68.405,22.561c-0.474-12.536-10.758-22.561-23.41-22.561
		c-12.953,0-23.455,10.502-23.455,23.455v275.428c0,12.954,10.502,23.455,23.455,23.455c12.954,0,23.455-10.502,23.455-23.455
		v-90.873c19.139,14.145,42.785,22.528,68.359,22.528c63.559,0,115.268-51.709,115.268-115.268
		C512,195.684,460.291,143.975,396.732,143.975z M396.732,327.601c-37.694,0-68.359-30.665-68.359-68.358
		s30.665-68.359,68.359-68.359c37.692,0,68.358,30.665,68.358,68.359C465.09,296.937,434.424,327.601,396.732,327.601z"/>
</g>
<g>
</g>
<g>
</g>
<g>
</g>
<g>
</g>
<g>
</g>
<g>
</g>
<g>
</g>
<g>
</g>
<g>
</g>
<g>
</g>
<g>
</g>
<g>
</g>
<g>
</g>
<g>
</g>
<g>
</g>
</svg>
